<svg width="74" height="74" viewBox="0 0 74 74" fill="none" xmlns="http://www.w3.org/2000/svg">
    <path d="M27.9596 21.821H18.7515C17.1234 21.821 15.562 22.4677 14.4108 23.6189C13.2595 24.7702 12.6128 26.3316 12.6128 27.9597V55.5838C12.6128 57.2119 13.2595 58.7733 14.4108 59.9246C15.562 61.0758 17.1234 61.7226 18.7515 61.7226H46.3757C48.0038 61.7226 49.5652 61.0758 50.7164 59.9246C51.8676 58.7733 52.5144 57.2119 52.5144 55.5838V46.3758" stroke="#D9D9D9" stroke-width="5" stroke-linecap="round" stroke-linejoin="round" />
    <path d="M27.9595 46.3757H37.1675L63.257 20.2862C64.4781 19.0652 65.1641 17.409 65.1641 15.6822C65.1641 13.9553 64.4781 12.2992 63.257 11.0782C62.036 9.8571 60.3799 9.17111 58.653 9.17111C56.9262 9.17111 55.27 9.8571 54.049 11.0782L27.9595 37.1677V46.3757Z" stroke="#D9D9D9" stroke-width="5" stroke-linecap="round" stroke-linejoin="round" />
    <path d="M49.4451 15.6823L58.6531 24.8903" stroke="#D9D9D9" stroke-width="5" stroke-linecap="round" stroke-linejoin="round" />
</svg>