<svg width="76" height="76" viewBox="0 0 76 76" fill="none" xmlns="http://www.w3.org/2000/svg">
    <path d="M60.1351 12.6599H15.8252C14.0772 12.6599 12.6602 14.0769 12.6602 15.8249V22.1549C12.6602 23.9029 14.0772 25.3199 15.8252 25.3199H60.1351C61.8831 25.3199 63.3001 23.9029 63.3001 22.1549V15.8249C63.3001 14.0769 61.8831 12.6599 60.1351 12.6599Z" stroke="#D9D9D9" stroke-width="5" stroke-linecap="round" stroke-linejoin="round" />
    <path d="M28.4851 37.9799H15.8252C14.0772 37.9799 12.6602 39.3969 12.6602 41.1449V60.1349C12.6602 61.8829 14.0772 63.2999 15.8252 63.2999H28.4851C30.2331 63.2999 31.6501 61.8829 31.6501 60.1349V41.1449C31.6501 39.3969 30.2331 37.9799 28.4851 37.9799Z" stroke="#D9D9D9" stroke-width="5" stroke-linecap="round" stroke-linejoin="round" />
    <path d="M44.3101 37.9799H63.3" stroke="#D9D9D9" stroke-width="5" stroke-linecap="round" stroke-linejoin="round" />
    <path d="M44.3101 50.64H63.3" stroke="#D9D9D9" stroke-width="5" stroke-linecap="round" stroke-linejoin="round" />
    <path d="M44.3101 63.2999H63.3" stroke="#D9D9D9" stroke-width="5" stroke-linecap="round" stroke-linejoin="round" />
</svg>