<svg width="70" height="70" viewBox="0 0 70 70" fill="none" xmlns="http://www.w3.org/2000/svg">
    <path d="M20.6542 29.3622H29.3623V20.6541L19.2029 10.4947C22.4528 8.9426 26.104 8.43617 29.6537 9.0452C33.2034 9.65424 36.477 11.3488 39.0237 13.8955C41.5703 16.4421 43.2649 19.7157 43.8739 23.2654C44.4829 26.8151 43.9765 30.4663 42.4244 33.7162L59.8405 51.1324C60.9952 52.2871 61.644 53.8533 61.644 55.4864C61.644 57.1195 60.9952 58.6857 59.8405 59.8404C58.6857 60.9952 57.1195 61.6439 55.4865 61.6439C53.8534 61.6439 52.2872 60.9952 51.1324 59.8404L33.7163 42.4243C30.4664 43.9764 26.8152 44.4829 23.2655 43.8738C19.7158 43.2648 16.4422 41.5703 13.8955 39.0236C11.3488 36.4769 9.6543 33.2033 9.04527 29.6536C8.43624 26.1039 8.94266 22.4527 10.4948 19.2028L20.6542 29.3622Z" stroke="#D9D9D9" stroke-width="4" stroke-linecap="round" stroke-linejoin="round" />
</svg>